<svg width="56" height="56" viewBox="0 0 56 56" fill="none" xmlns="http://www.w3.org/2000/svg">
<line x1="18.6666" y1="50.4" x2="37.3333" y2="50.4" stroke="#3391F3" stroke-width="3.73333"/>
<line x1="28" y1="48.5333" x2="28" y2="24.2667" stroke="#3391F3" stroke-width="3.73333"/>
<circle cx="28" cy="20.5333" r="3.73333" stroke="#3391F3" stroke-width="3.73333"/>
<path d="M16.8 20.5333C16.8 17.2963 18.1733 14.38 20.369 12.3353C20.7136 12.0143 21.2469 12.0462 21.5799 12.3792V12.3792C21.9742 12.7735 21.9284 13.4229 21.5267 13.8097C19.7636 15.5076 18.6667 17.8924 18.6667 20.5333C18.6667 23.2353 19.8149 25.6691 21.6499 27.3735C22.0633 27.7575 22.1163 28.4164 21.7174 28.8153V28.8153C21.3892 29.1435 20.8651 29.1793 20.5197 28.8692C18.2363 26.8188 16.8 23.8438 16.8 20.5333Z" fill="#3391F3"/>
<path d="M34.4202 28.6875C34.7532 29.0205 35.2865 29.0523 35.6311 28.7314C37.8268 26.6866 39.2 23.7703 39.2 20.5333C39.2 17.3697 37.8884 14.5124 35.7792 12.4757C35.4356 12.1439 34.893 12.1716 34.5553 12.5094V12.5094C34.1655 12.8991 34.2045 13.539 34.5945 13.9285C36.2866 15.6179 37.3334 17.9534 37.3334 20.5333C37.3334 23.1743 36.2365 25.5591 34.4734 27.2569C34.0717 27.6438 34.0258 28.2931 34.4202 28.6875V28.6875Z" fill="#3391F3"/>
<path d="M11.2 20.5333C11.2 15.7635 13.1877 11.458 16.3801 8.39989C16.7318 8.06302 17.2856 8.085 17.63 8.42934V8.42934C18.0139 8.81331 17.9861 9.44169 17.5966 9.82003C14.8026 12.5337 13.0666 16.3308 13.0666 20.5333C13.0666 24.7993 14.8554 28.6475 17.7238 31.3687C18.1208 31.7454 18.1528 32.3798 17.7658 32.7668V32.7668C17.4245 33.1081 16.8766 33.1329 16.5242 32.8032C13.2477 29.7374 11.2 25.3745 11.2 20.5333Z" fill="#3391F3"/>
<path d="M38.3699 32.6373C38.7143 32.9817 39.2681 33.0036 39.6198 32.6668C42.8122 29.6087 44.7999 25.3032 44.7999 20.5333C44.7999 15.8348 42.8712 11.5868 39.7622 8.53792C39.4114 8.19393 38.8516 8.21297 38.5042 8.56038V8.56038C38.1232 8.94136 38.147 9.56367 38.529 9.94356C41.2493 12.6483 42.9333 16.3942 42.9333 20.5333C42.9333 24.7359 41.1973 28.533 38.4033 31.2466C38.0138 31.625 37.986 32.2533 38.3699 32.6373V32.6373Z" fill="#3391F3"/>
</svg>
