<svg width="1225px" height="304px" viewBox="0 0 1225 304" version="1.1" xmlns="http://www.w3.org/2000/svg" xmlns:xlink="http://www.w3.org/1999/xlink">
    <defs>
        <linearGradient x1="-0.000999967281%" y1="49.9980462%" x2="100.013912%" y2="49.9980462%" id="linearGradient-1">
            <stop stop-color="#F3A879" stop-opacity="0.95" offset="0%"></stop>
            <stop stop-color="#EE9D78" stop-opacity="0.96" offset="40%"></stop>
            <stop stop-color="#E28074" offset="100%"></stop>
        </linearGradient>
        <linearGradient x1="37.8721919%" y1="63.205698%" x2="71.6372496%" y2="48.4535613%" id="linearGradient-2">
            <stop stop-color="#000000" stop-opacity="0" offset="0%"></stop>
            <stop stop-color="#000000" offset="100%"></stop>
        </linearGradient>
    </defs>
    <g id="Page-1" stroke="none" stroke-width="1" fill="none" fill-rule="evenodd">
        <g id="wp_logo" fill-rule="nonzero">
            <path d="M472.63,155.3 L455.63,209.48 L431.19,209.48 L398.25,111.73 L428,111.73 L445,169.11 L463.07,111.73 L482.19,111.73 L500.25,169.11 L517.25,111.73 L547,111.73 L514.06,209.48 L489.63,209.48 L472.63,155.3 Z M597,109.61 C624.62,109.61 646.93,131.93 646.93,160.61 C646.93,189.29 624.62,211.61 597,211.61 C569.38,211.61 547.07,189.3 547.07,160.61 C547.07,131.92 569.41,109.61 597,109.61 Z M597,136.17 C585.31,136.17 575.75,145.73 575.75,160.61 C575.75,175.49 585.34,185 597,185 C608.66,185 618.25,175.44 618.25,160.57 C618.25,145.7 608.72,136.17 597,136.17 Z M717.15,111.73 L717.15,141.48 C713.796,140.03 710.173,139.307 706.52,139.36 C695.9,139.36 688.46,146.8 688.46,159.55 L688.46,209.48 L659.78,209.48 L659.78,111.73 L681,111.73 L685.26,122.36 C685.26,122.36 693.75,110.67 708.63,110.67 C711.507,110.606 714.377,110.963 717.15,111.73 Z M788.4,209.48 L758.65,165.92 L758.65,209.48 L730,209.48 L730,75.62 L758.69,75.62 L758.69,151 L785.25,111.69 L818.19,111.69 L785.25,158.44 L821.37,209.44 L788.4,209.48 Z M930.07,160.61 C930.07,189.3 908.81,210.55 884.38,210.55 C875.502,210.54 866.888,207.527 859.94,202 L859.94,243.44 L831.26,243.44 L831.26,111.73 L852.5,111.73 L856.76,121.3 C864.355,114.496 874.183,110.714 884.38,110.67 C908.81,110.67 930.07,131.93 930.07,160.61 Z M880.13,137.24 C868.45,137.24 858.88,146.8 858.88,160.61 C858.88,174.42 868.45,184 880.13,184 C891.81,184 901.38,174.44 901.38,160.63 C901.38,146.82 891.81,137.24 880.13,137.24 Z M942.88,160.61 C942.88,131.93 964.13,110.67 988.56,110.67 C998.76,110.715 1008.59,114.497 1016.19,121.3 L1020.43,111.73 L1041.68,111.73 L1041.68,209.48 L1020.43,209.48 L1016.19,199.92 C1008.59,206.723 998.76,210.505 988.56,210.55 C964.13,210.55 942.88,189.3 942.88,160.61 Z M992.81,184 C1004.5,184 1014.06,174.44 1014.06,160.63 C1014.06,146.82 1004.5,137.26 992.81,137.26 C981.12,137.26 971.56,146.82 971.56,160.63 C971.56,174.44 981.12,184 992.81,184 Z M1069.37,138.3 L1054.49,138.3 L1054.49,113.86 L1061.93,113.86 C1069.37,113.86 1073.62,109.61 1073.62,102.17 L1073.62,88.36 L1098.06,88.36 L1098.06,111.73 L1118.24,111.73 L1118.24,138.3 L1098.06,138.3 L1098.06,170.17 C1098.06,178.67 1103.37,183.98 1110.8,183.98 C1113.32,183.99 1115.82,183.633 1118.24,182.92 L1118.24,208.42 C1113.78,209.87 1109.12,210.589 1104.43,210.55 C1082.12,210.55 1069.37,197.79 1069.37,174.42 L1069.37,138.3 Z M1159.74,121.3 C1159.74,121.3 1168.24,110.67 1187.36,110.67 C1208.61,110.67 1224.55,126.61 1224.55,152.11 L1224.55,209.48 L1195.87,209.48 L1195.87,157.42 C1195.87,144.67 1188.43,137.24 1177.8,137.24 C1167.17,137.24 1159.74,144.67 1159.74,157.42 L1159.74,209.48 L1131.05,209.48 L1131.05,75.62 L1159.74,75.62 L1159.74,121.3 Z" id="Shape" fill="#2D4152"></path>
            <path d="M256.67,301.42 L176.78,168.34 L119.16,258 C118.541,258.963 117.486,259.556 116.342,259.584 C115.198,259.612 114.115,259.071 113.45,258.14 L1.19999,101.25 C0.5377,100.324 0.373592,99.1308 0.761135,98.0601 C1.14868,96.9893 2.03825,96.1778 3.13999,95.89 L145.22,58.71 C146.706,58.3263 148.268,58.9649 149.06,60.28 L177.7,108 L221.61,39.68 C222.07,38.9557 222.783,38.4283 223.61,38.2 L366.92,0.699998 C368.159,0.389224 369.468,0.78837 370.323,1.73746 C371.178,2.68654 371.438,4.03024 371,5.23 L262.88,300.83 C262.42,302.078 261.285,302.953 259.961,303.078 C258.636,303.204 257.357,302.559 256.67,301.42 Z M196,138.45 L253.4,234.07 L322.48,45.26 L242.42,66.21 L196,138.45 Z M51.12,116.27 L115,205.54 L158.49,137.87 L132.7,94.92 L51.12,116.27 Z" id="Shape" fill="url(#linearGradient-1)"></path>
            <path d="M170.9,177.48 L176.78,168.34 L158.49,137.87 L144.91,159 C154.762,163.29 163.613,169.583 170.9,177.48 Z" id="Path" fill="#444444" opacity="0.13"></path>
            <g id="Group" opacity="0.25" transform="translate(118.000000, 137.000000)" fill="url(#linearGradient-2)">
                <polygon id="Path" style="mix-blend-mode: multiply;" points="40.34 0.87 58.78 31.59 22.12 88.62 0.56 62.76"></polygon>
            </g>
        </g>
    </g>
</svg>